<svg xmlns="http://www.w3.org/2000/svg" xmlns:xlink="http://www.w3.org/1999/xlink" width="100" zoomAndPan="magnify" viewBox="0 0 75 74.999997" height="100" preserveAspectRatio="xMidYMid meet" version="1.0"><defs><clipPath id="78b1f146fe"><path d="M 3.75 -1.851562 L 72.71875 -1.851562 C 74.792969 -1.851562 76.46875 -0.171875 76.46875 1.898438 L 76.46875 72.542969 C 76.46875 74.613281 74.792969 76.292969 72.71875 76.292969 L 3.75 76.292969 C 1.679688 76.292969 0 74.613281 0 72.542969 L 0 1.898438 C 0 -0.171875 1.679688 -1.851562 3.75 -1.851562 Z M 3.75 -1.851562 " clip-rule="nonzero"/></clipPath><clipPath id="196caf80bd"><path d="M 21.304688 21.570312 L 31.804688 21.570312 L 31.804688 34 L 21.304688 34 Z M 21.304688 21.570312 " clip-rule="nonzero"/></clipPath><clipPath id="2f4c0b1b5b"><path d="M 27 29 L 31.804688 29 L 31.804688 34.320312 L 27 34.320312 Z M 27 29 " clip-rule="nonzero"/></clipPath></defs><rect x="-7.5" width="90" fill="#ffffff" y="-7.5" height="89.999996" fill-opacity="1"/><rect x="-7.5" width="90" fill="#ffffff" y="-7.5" height="89.999996" fill-opacity="1"/><g clip-path="url(#78b1f146fe)"><rect x="-7.5" width="90" fill="#db8b8b" y="-7.5" height="89.999996" fill-opacity="1"/></g><path fill="#f1bc19" d="M 64.421875 1.921875 C 64.421875 2.1875 64.328125 2.414062 64.140625 2.601562 C 63.953125 2.789062 63.726562 2.882812 63.460938 2.882812 C 63.195312 2.882812 62.96875 2.789062 62.78125 2.601562 C 62.59375 2.414062 62.5 2.1875 62.5 1.921875 C 62.5 1.65625 62.59375 1.429688 62.78125 1.242188 C 62.96875 1.054688 63.195312 0.960938 63.460938 0.960938 C 63.726562 0.960938 63.953125 1.054688 64.140625 1.242188 C 64.328125 1.429688 64.421875 1.65625 64.421875 1.921875 Z M 64.421875 1.921875 " fill-opacity="1" fill-rule="nonzero"/><path fill="#e6edb7" d="M 73.078125 37.5 C 73.078125 38.664062 73.019531 39.828125 72.90625 40.988281 C 72.792969 42.148438 72.621094 43.296875 72.394531 44.441406 C 72.164062 45.582031 71.882812 46.710938 71.546875 47.828125 C 71.207031 48.941406 70.816406 50.039062 70.367188 51.113281 C 69.921875 52.191406 69.425781 53.242188 68.875 54.269531 C 68.328125 55.296875 67.726562 56.296875 67.082031 57.265625 C 66.433594 58.234375 65.742188 59.167969 65 60.070312 C 64.261719 60.96875 63.480469 61.832031 62.65625 62.65625 C 61.832031 63.480469 60.96875 64.261719 60.070312 65 C 59.167969 65.742188 58.234375 66.433594 57.265625 67.082031 C 56.296875 67.726562 55.296875 68.328125 54.269531 68.875 C 53.242188 69.425781 52.191406 69.921875 51.113281 70.367188 C 50.039062 70.816406 48.941406 71.207031 47.828125 71.546875 C 46.710938 71.882812 45.582031 72.164062 44.441406 72.394531 C 43.296875 72.621094 42.148438 72.792969 40.988281 72.90625 C 39.828125 73.019531 38.664062 73.078125 37.5 73.078125 C 36.335938 73.078125 35.171875 73.019531 34.011719 72.90625 C 32.851562 72.792969 31.703125 72.621094 30.558594 72.394531 C 29.417969 72.164062 28.289062 71.882812 27.171875 71.546875 C 26.058594 71.207031 24.960938 70.816406 23.886719 70.367188 C 22.808594 69.921875 21.757812 69.425781 20.730469 68.875 C 19.703125 68.328125 18.703125 67.726562 17.734375 67.082031 C 16.765625 66.433594 15.832031 65.742188 14.929688 65 C 14.03125 64.261719 13.167969 63.480469 12.34375 62.65625 C 11.519531 61.832031 10.738281 60.96875 10 60.070312 C 9.257812 59.167969 8.566406 58.234375 7.917969 57.265625 C 7.273438 56.296875 6.671875 55.296875 6.125 54.269531 C 5.574219 53.242188 5.078125 52.191406 4.632812 51.113281 C 4.183594 50.039062 3.792969 48.941406 3.453125 47.828125 C 3.117188 46.710938 2.835938 45.582031 2.605469 44.441406 C 2.378906 43.296875 2.207031 42.148438 2.09375 40.988281 C 1.980469 39.828125 1.921875 38.664062 1.921875 37.5 C 1.921875 36.335938 1.980469 35.171875 2.09375 34.011719 C 2.207031 32.851562 2.378906 31.703125 2.605469 30.558594 C 2.835938 29.417969 3.117188 28.289062 3.453125 27.171875 C 3.792969 26.058594 4.183594 24.960938 4.632812 23.886719 C 5.078125 22.808594 5.574219 21.757812 6.125 20.730469 C 6.671875 19.703125 7.273438 18.703125 7.917969 17.734375 C 8.566406 16.765625 9.257812 15.832031 10 14.929688 C 10.738281 14.03125 11.519531 13.167969 12.34375 12.34375 C 13.167969 11.519531 14.03125 10.738281 14.929688 10 C 15.832031 9.257812 16.765625 8.566406 17.734375 7.917969 C 18.703125 7.273438 19.703125 6.671875 20.730469 6.125 C 21.757812 5.574219 22.808594 5.078125 23.886719 4.632812 C 24.960938 4.183594 26.058594 3.792969 27.171875 3.453125 C 28.289062 3.117188 29.417969 2.835938 30.558594 2.605469 C 31.703125 2.378906 32.851562 2.207031 34.011719 2.09375 C 35.171875 1.980469 36.335938 1.921875 37.5 1.921875 C 38.664062 1.921875 39.828125 1.980469 40.988281 2.09375 C 42.148438 2.207031 43.296875 2.378906 44.441406 2.605469 C 45.582031 2.835938 46.710938 3.117188 47.828125 3.453125 C 48.941406 3.792969 50.039062 4.183594 51.113281 4.632812 C 52.191406 5.078125 53.242188 5.574219 54.269531 6.125 C 55.296875 6.671875 56.296875 7.273438 57.265625 7.917969 C 58.234375 8.566406 59.167969 9.257812 60.070312 10 C 60.96875 10.738281 61.832031 11.519531 62.65625 12.34375 C 63.480469 13.167969 64.261719 14.03125 65 14.929688 C 65.742188 15.832031 66.433594 16.765625 67.082031 17.734375 C 67.726562 18.703125 68.328125 19.703125 68.875 20.730469 C 69.425781 21.757812 69.921875 22.808594 70.367188 23.886719 C 70.816406 24.960938 71.207031 26.058594 71.546875 27.171875 C 71.882812 28.289062 72.164062 29.417969 72.394531 30.558594 C 72.621094 31.703125 72.792969 32.851562 72.90625 34.011719 C 73.019531 35.171875 73.078125 36.335938 73.078125 37.5 Z M 73.078125 37.5 " fill-opacity="1" fill-rule="nonzero"/><path fill="#f1bc19" d="M 73.078125 3.847656 C 73.078125 4.355469 72.980469 4.847656 72.785156 5.316406 C 72.589844 5.789062 72.3125 6.207031 71.949219 6.566406 C 71.589844 6.925781 71.171875 7.203125 70.703125 7.398438 C 70.230469 7.59375 69.742188 7.691406 69.230469 7.691406 C 68.722656 7.691406 68.230469 7.59375 67.757812 7.398438 C 67.289062 7.203125 66.871094 6.925781 66.511719 6.566406 C 66.152344 6.207031 65.871094 5.789062 65.675781 5.316406 C 65.480469 4.847656 65.382812 4.355469 65.382812 3.847656 C 65.382812 3.335938 65.480469 2.84375 65.675781 2.375 C 65.871094 1.902344 66.152344 1.488281 66.511719 1.125 C 66.871094 0.765625 67.289062 0.488281 67.757812 0.292969 C 68.230469 0.0976562 68.722656 0 69.230469 0 C 69.742188 0 70.230469 0.0976562 70.703125 0.292969 C 71.171875 0.488281 71.589844 0.765625 71.949219 1.125 C 72.3125 1.488281 72.589844 1.902344 72.785156 2.375 C 72.980469 2.84375 73.078125 3.335938 73.078125 3.847656 Z M 73.078125 3.847656 " fill-opacity="1" fill-rule="nonzero"/><path fill="#9f8066" d="M 75 12.5 C 75 12.753906 74.953125 13 74.855469 13.234375 C 74.757812 13.472656 74.617188 13.679688 74.4375 13.859375 C 74.257812 14.039062 74.046875 14.179688 73.8125 14.277344 C 73.578125 14.375 73.332031 14.421875 73.078125 14.421875 C 72.820312 14.421875 72.578125 14.375 72.339844 14.277344 C 72.105469 14.179688 71.898438 14.039062 71.71875 13.859375 C 71.535156 13.679688 71.398438 13.472656 71.300781 13.234375 C 71.203125 13 71.152344 12.753906 71.152344 12.5 C 71.152344 12.246094 71.203125 12 71.300781 11.765625 C 71.398438 11.527344 71.535156 11.320312 71.71875 11.140625 C 71.898438 10.960938 72.105469 10.820312 72.339844 10.722656 C 72.578125 10.625 72.820312 10.578125 73.078125 10.578125 C 73.332031 10.578125 73.578125 10.625 73.8125 10.722656 C 74.046875 10.820312 74.257812 10.960938 74.4375 11.140625 C 74.617188 11.320312 74.757812 11.527344 74.855469 11.765625 C 74.953125 12 75 12.246094 75 12.5 Z M 75 12.5 " fill-opacity="1" fill-rule="nonzero"/><path fill="#fbcd59" d="M 69.230469 62.5 C 69.230469 62.753906 69.183594 63 69.085938 63.234375 C 68.988281 63.472656 68.847656 63.679688 68.667969 63.859375 C 68.488281 64.039062 68.277344 64.179688 68.042969 64.277344 C 67.808594 64.375 67.5625 64.421875 67.308594 64.421875 C 67.050781 64.421875 66.808594 64.375 66.570312 64.277344 C 66.335938 64.179688 66.128906 64.039062 65.949219 63.859375 C 65.765625 63.679688 65.628906 63.472656 65.53125 63.234375 C 65.433594 63 65.382812 62.753906 65.382812 62.5 C 65.382812 62.246094 65.433594 62 65.53125 61.765625 C 65.628906 61.527344 65.765625 61.320312 65.949219 61.140625 C 66.128906 60.960938 66.335938 60.820312 66.570312 60.722656 C 66.808594 60.625 67.050781 60.578125 67.308594 60.578125 C 67.5625 60.578125 67.808594 60.625 68.042969 60.722656 C 68.277344 60.820312 68.488281 60.960938 68.667969 61.140625 C 68.847656 61.320312 68.988281 61.527344 69.085938 61.765625 C 69.183594 62 69.230469 62.246094 69.230469 62.5 Z M 69.230469 62.5 " fill-opacity="1" fill-rule="nonzero"/><path fill="#fbcd59" d="M 7.691406 50 C 7.691406 50.511719 7.59375 51 7.398438 51.472656 C 7.203125 51.941406 6.925781 52.359375 6.566406 52.71875 C 6.207031 53.082031 5.789062 53.359375 5.316406 53.554688 C 4.847656 53.75 4.355469 53.847656 3.847656 53.847656 C 3.335938 53.847656 2.84375 53.75 2.375 53.554688 C 1.902344 53.359375 1.488281 53.082031 1.125 52.71875 C 0.765625 52.359375 0.488281 51.941406 0.292969 51.472656 C 0.0976562 51 0 50.511719 0 50 C 0 49.488281 0.0976562 49 0.292969 48.527344 C 0.488281 48.058594 0.765625 47.640625 1.125 47.28125 C 1.488281 46.917969 1.902344 46.640625 2.375 46.445312 C 2.84375 46.25 3.335938 46.152344 3.847656 46.152344 C 4.355469 46.152344 4.847656 46.25 5.316406 46.445312 C 5.789062 46.640625 6.207031 46.917969 6.566406 47.28125 C 6.925781 47.640625 7.203125 48.058594 7.398438 48.527344 C 7.59375 49 7.691406 49.488281 7.691406 50 Z M 7.691406 50 " fill-opacity="1" fill-rule="nonzero"/><path fill="#9f8066" d="M 15.382812 73.078125 C 15.382812 73.332031 15.335938 73.578125 15.238281 73.8125 C 15.140625 74.046875 15 74.257812 14.820312 74.4375 C 14.640625 74.617188 14.433594 74.757812 14.199219 74.855469 C 13.960938 74.953125 13.714844 75 13.460938 75 C 13.207031 75 12.960938 74.953125 12.726562 74.855469 C 12.488281 74.757812 12.28125 74.617188 12.101562 74.4375 C 11.921875 74.257812 11.78125 74.046875 11.683594 73.8125 C 11.585938 73.578125 11.539062 73.332031 11.539062 73.078125 C 11.539062 72.820312 11.585938 72.578125 11.683594 72.339844 C 11.78125 72.105469 11.921875 71.898438 12.101562 71.71875 C 12.28125 71.535156 12.488281 71.398438 12.726562 71.300781 C 12.960938 71.203125 13.207031 71.152344 13.460938 71.152344 C 13.714844 71.152344 13.960938 71.203125 14.199219 71.300781 C 14.433594 71.398438 14.640625 71.535156 14.820312 71.71875 C 15 71.898438 15.140625 72.105469 15.238281 72.339844 C 15.335938 72.578125 15.382812 72.820312 15.382812 73.078125 Z M 15.382812 73.078125 " fill-opacity="1" fill-rule="nonzero"/><path fill="#ffffff" d="M 9.617188 38.941406 C 9.617188 39.261719 9.554688 39.566406 9.433594 39.863281 C 9.308594 40.15625 9.136719 40.417969 8.910156 40.640625 C 8.6875 40.867188 8.425781 41.042969 8.132812 41.164062 C 7.835938 41.285156 7.53125 41.347656 7.210938 41.347656 C 6.894531 41.347656 6.585938 41.285156 6.292969 41.164062 C 5.996094 41.042969 5.738281 40.867188 5.511719 40.640625 C 5.285156 40.417969 5.113281 40.15625 4.992188 39.863281 C 4.867188 39.566406 4.808594 39.261719 4.808594 38.941406 C 4.808594 38.625 4.867188 38.316406 4.992188 38.023438 C 5.113281 37.726562 5.285156 37.46875 5.511719 37.242188 C 5.738281 37.015625 5.996094 36.84375 6.292969 36.722656 C 6.585938 36.597656 6.894531 36.539062 7.210938 36.539062 C 7.53125 36.539062 7.835938 36.597656 8.132812 36.722656 C 8.425781 36.84375 8.6875 37.015625 8.910156 37.242188 C 9.136719 37.46875 9.308594 37.726562 9.433594 38.023438 C 9.554688 38.316406 9.617188 38.625 9.617188 38.941406 Z M 9.617188 38.941406 " fill-opacity="1" fill-rule="nonzero"/><path fill="#ffffff" d="M 67.308594 21.632812 C 67.308594 21.824219 67.269531 22.011719 67.199219 22.1875 C 67.125 22.363281 67.019531 22.519531 66.886719 22.65625 C 66.75 22.789062 66.59375 22.894531 66.417969 22.96875 C 66.242188 23.039062 66.058594 23.078125 65.867188 23.078125 C 65.675781 23.078125 65.488281 23.039062 65.3125 22.96875 C 65.136719 22.894531 64.980469 22.789062 64.84375 22.65625 C 64.710938 22.519531 64.605469 22.363281 64.53125 22.1875 C 64.460938 22.011719 64.421875 21.824219 64.421875 21.632812 C 64.421875 21.441406 64.460938 21.257812 64.53125 21.082031 C 64.605469 20.90625 64.710938 20.75 64.84375 20.613281 C 64.980469 20.480469 65.136719 20.375 65.3125 20.300781 C 65.488281 20.230469 65.675781 20.191406 65.867188 20.191406 C 66.058594 20.191406 66.242188 20.230469 66.417969 20.300781 C 66.59375 20.375 66.75 20.480469 66.886719 20.613281 C 67.019531 20.75 67.125 20.90625 67.199219 21.082031 C 67.269531 21.257812 67.308594 21.441406 67.308594 21.632812 Z M 67.308594 21.632812 " fill-opacity="1" fill-rule="nonzero"/><path fill="#ee3e54" d="M 37.425781 55.097656 C 36.582031 55.097656 35.804688 54.71875 35.292969 54.066406 C 34.851562 53.5 34.210938 53.171875 33.535156 53.171875 L 14.023438 53.171875 C 13.554688 53.171875 13.171875 52.792969 13.171875 52.324219 L 13.171875 23.636719 C 13.171875 23.167969 13.554688 22.789062 14.023438 22.789062 L 60.015625 22.789062 C 60.484375 22.789062 60.863281 23.167969 60.863281 23.636719 L 60.863281 52.324219 C 60.863281 52.792969 60.484375 53.171875 60.015625 53.171875 L 41.320312 53.171875 C 40.644531 53.171875 40.003906 53.5 39.5625 54.066406 C 39.046875 54.71875 38.269531 55.097656 37.425781 55.097656 Z M 37.425781 55.097656 " fill-opacity="1" fill-rule="nonzero"/><path fill="#472b29" d="M 60.015625 23.460938 C 60.113281 23.460938 60.191406 23.542969 60.191406 23.636719 L 60.191406 52.324219 C 60.191406 52.421875 60.113281 52.5 60.015625 52.5 L 41.320312 52.5 C 40.4375 52.5 39.601562 52.921875 39.03125 53.652344 C 38.644531 54.140625 38.0625 54.425781 37.429688 54.425781 C 36.792969 54.425781 36.207031 54.140625 35.824219 53.652344 C 35.253906 52.921875 34.417969 52.5 33.535156 52.5 L 14.023438 52.5 C 13.925781 52.5 13.847656 52.421875 13.847656 52.324219 L 13.847656 23.636719 C 13.847656 23.539062 13.925781 23.460938 14.023438 23.460938 L 60.015625 23.460938 M 60.015625 22.117188 L 14.023438 22.117188 C 13.183594 22.117188 12.5 22.796875 12.5 23.636719 L 12.5 52.324219 C 12.5 53.164062 13.183594 53.847656 14.023438 53.847656 L 33.53125 53.847656 C 34.019531 53.847656 34.460938 54.09375 34.761719 54.480469 C 35.375 55.261719 36.339844 55.769531 37.425781 55.769531 C 38.515625 55.769531 39.480469 55.261719 40.089844 54.480469 C 40.390625 54.09375 40.832031 53.847656 41.320312 53.847656 L 60.015625 53.847656 C 60.855469 53.847656 61.539062 53.164062 61.539062 52.324219 L 61.539062 23.636719 C 61.539062 22.796875 60.855469 22.117188 60.015625 22.117188 Z M 60.015625 22.117188 " fill-opacity="1" fill-rule="nonzero"/><path fill="#fdfcef" d="M 16.945312 49.328125 C 16.457031 49.328125 16.058594 48.929688 16.058594 48.4375 L 16.058594 18.871094 C 16.058594 18.378906 16.457031 17.980469 16.945312 17.980469 L 26.90625 17.980469 C 30.242188 17.980469 34.382812 18.617188 36.757812 19.492188 C 36.996094 19.582031 37.246094 19.625 37.5 19.625 C 37.753906 19.625 38.003906 19.582031 38.242188 19.492188 C 40.613281 18.617188 44.757812 17.980469 48.09375 17.980469 L 57.089844 17.980469 C 57.582031 17.980469 57.980469 18.378906 57.980469 18.871094 L 57.980469 48.4375 C 57.980469 48.929688 57.582031 49.328125 57.089844 49.328125 Z M 16.945312 49.328125 " fill-opacity="1" fill-rule="nonzero"/><path fill="#472b29" d="M 57.089844 18.652344 C 57.210938 18.652344 57.308594 18.75 57.308594 18.871094 L 57.308594 48.4375 C 57.308594 48.558594 57.210938 48.652344 57.089844 48.652344 L 16.945312 48.652344 C 16.828125 48.652344 16.730469 48.558594 16.730469 48.4375 L 16.730469 18.871094 C 16.730469 18.75 16.828125 18.652344 16.945312 18.652344 L 26.910156 18.652344 C 30.121094 18.652344 34.253906 19.285156 36.527344 20.125 C 36.839844 20.242188 37.167969 20.296875 37.5 20.296875 C 37.832031 20.296875 38.160156 20.238281 38.472656 20.125 C 40.746094 19.285156 44.878906 18.652344 48.089844 18.652344 L 57.089844 18.652344 M 57.089844 17.308594 L 48.089844 17.308594 C 44.539062 17.308594 40.320312 18.007812 38.007812 18.863281 C 37.84375 18.921875 37.671875 18.953125 37.5 18.953125 C 37.328125 18.953125 37.15625 18.921875 36.992188 18.863281 C 34.679688 18.007812 30.460938 17.308594 26.910156 17.308594 L 16.945312 17.308594 C 16.085938 17.308594 15.382812 18.007812 15.382812 18.871094 L 15.382812 48.4375 C 15.382812 49.300781 16.085938 50 16.945312 50 L 57.089844 50 C 57.953125 50 58.652344 49.300781 58.652344 48.4375 L 58.652344 18.871094 C 58.652344 18.007812 57.953125 17.308594 57.089844 17.308594 Z M 57.089844 17.308594 " fill-opacity="1" fill-rule="nonzero"/><path fill="#d7ccc8" d="M 58.675781 48.589844 L 58.675781 52.90625 L 60.910156 52.90625 L 60.910156 49.703125 C 60.847656 49.71875 60.78125 49.726562 60.71875 49.746094 C 60.164062 49.1875 59.457031 48.792969 58.675781 48.589844 Z M 58.675781 48.589844 " fill-opacity="1" fill-rule="nonzero"/><path fill="#f6cca4" d="M 62.601562 42.910156 C 61.394531 42.910156 60.417969 43.917969 60.417969 45.160156 L 60.417969 44.035156 C 60.417969 42.792969 59.441406 41.78125 58.234375 41.78125 C 57.03125 41.78125 56.054688 42.789062 56.054688 44.035156 L 56.054688 42.910156 C 56.054688 41.664062 55.074219 40.65625 53.871094 40.65625 C 52.664062 40.65625 51.28125 41.304688 51.28125 42.546875 L 51.28125 35.054688 C 51.28125 33.8125 50.824219 32.691406 49.617188 32.691406 C 48.414062 32.691406 47.714844 33.6875 47.714844 34.929688 L 47.714844 50.320312 L 44.304688 47.304688 C 43.449219 46.421875 42.070312 46.421875 41.214844 47.304688 C 40.363281 48.183594 40.363281 49.609375 41.214844 50.488281 L 47.324219 56.789062 C 47.324219 56.789062 50.308594 59.796875 52.777344 59.796875 L 57.992188 59.796875 C 61.578125 59.796875 64.507812 56.925781 64.757812 53.289062 C 64.765625 53.207031 64.78125 53.125 64.78125 53.039062 L 64.78125 45.160156 C 64.785156 43.917969 63.808594 42.910156 62.601562 42.910156 Z M 62.601562 42.910156 " fill-opacity="1" fill-rule="nonzero"/><path fill="#472b29" d="M 57.996094 60.46875 L 52.78125 60.46875 C 50.058594 60.46875 46.976562 57.394531 46.84375 57.261719 L 40.734375 50.957031 C 39.632812 49.820312 39.632812 47.972656 40.734375 46.835938 C 41.8125 45.722656 43.707031 45.71875 44.785156 46.835938 L 47.042969 48.828125 L 47.042969 34.929688 C 47.042969 33.214844 48.101562 32.019531 49.621094 32.019531 C 51.0625 32.019531 51.957031 33.183594 51.957031 35.054688 L 51.957031 40.449219 C 52.523438 40.144531 53.207031 39.984375 53.871094 39.984375 C 55.035156 39.984375 56.039062 40.699219 56.484375 41.726562 C 56.96875 41.339844 57.578125 41.109375 58.238281 41.109375 C 59.402344 41.109375 60.40625 41.824219 60.847656 42.851562 C 61.332031 42.464844 61.941406 42.234375 62.601562 42.234375 C 64.175781 42.234375 65.457031 43.546875 65.457031 45.160156 L 65.457031 53.039062 C 65.457031 53.128906 65.445312 53.21875 65.4375 53.308594 C 65.15625 57.335938 61.890625 60.46875 57.996094 60.46875 Z M 42.761719 47.316406 C 42.363281 47.316406 41.984375 47.480469 41.699219 47.773438 C 41.101562 48.390625 41.101562 49.398438 41.699219 50.019531 L 47.808594 56.320312 C 48.578125 57.097656 50.988281 59.125 52.78125 59.125 L 57.996094 59.125 C 61.1875 59.125 63.863281 56.542969 64.089844 53.246094 C 64.089844 53.230469 64.101562 53.148438 64.101562 53.136719 L 64.113281 52.792969 L 64.113281 45.160156 C 64.113281 44.292969 63.433594 43.582031 62.601562 43.582031 C 61.769531 43.582031 61.09375 44.289062 61.09375 45.160156 C 61.09375 45.535156 60.792969 45.835938 60.421875 45.835938 C 60.050781 45.835938 59.75 45.535156 59.75 45.160156 L 59.75 44.035156 C 59.75 43.164062 59.070312 42.457031 58.238281 42.457031 C 57.40625 42.457031 56.730469 43.164062 56.730469 44.035156 C 56.730469 44.40625 56.429688 44.707031 56.058594 44.707031 C 55.683594 44.707031 55.382812 44.40625 55.382812 44.035156 L 55.382812 42.910156 C 55.382812 42.039062 54.707031 41.332031 53.875 41.332031 C 53.101562 41.332031 51.957031 41.71875 51.957031 42.550781 C 51.957031 42.921875 51.65625 43.222656 51.285156 43.222656 C 50.914062 43.222656 50.613281 42.921875 50.613281 42.550781 L 50.613281 35.058594 C 50.613281 34.425781 50.484375 33.367188 49.625 33.367188 C 48.714844 33.367188 48.394531 34.207031 48.394531 34.929688 L 48.394531 50.320312 C 48.394531 50.585938 48.238281 50.824219 48 50.933594 C 47.753906 51.042969 47.472656 51 47.273438 50.824219 L 43.863281 47.808594 C 43.535156 47.480469 43.160156 47.316406 42.761719 47.316406 Z M 42.761719 47.316406 " fill-opacity="1" fill-rule="nonzero"/><path fill="#472b29" d="M 37.019531 25.960938 C 36.753906 25.960938 36.539062 25.746094 36.539062 25.480469 L 36.539062 20.191406 C 36.539062 19.925781 36.753906 19.710938 37.019531 19.710938 C 37.285156 19.710938 37.5 19.925781 37.5 20.191406 L 37.5 25.480469 C 37.5 25.746094 37.285156 25.960938 37.019531 25.960938 Z M 37.019531 25.960938 " fill-opacity="1" fill-rule="nonzero"/><path fill="#472b29" d="M 37.019531 32.691406 C 36.753906 32.691406 36.539062 32.476562 36.539062 32.210938 L 36.539062 27.882812 C 36.539062 27.621094 36.753906 27.402344 37.019531 27.402344 C 37.285156 27.402344 37.5 27.621094 37.5 27.882812 L 37.5 32.210938 C 37.5 32.476562 37.285156 32.691406 37.019531 32.691406 Z M 37.019531 32.691406 " fill-opacity="1" fill-rule="nonzero"/><path fill="#472b29" d="M 37.019531 46.152344 C 36.753906 46.152344 36.539062 45.9375 36.539062 45.671875 L 36.539062 34.617188 C 36.539062 34.351562 36.753906 34.132812 37.019531 34.132812 C 37.285156 34.132812 37.5 34.351562 37.5 34.617188 L 37.5 45.671875 C 37.5 45.9375 37.285156 46.152344 37.019531 46.152344 Z M 37.019531 46.152344 " fill-opacity="1" fill-rule="nonzero"/><path fill="#472b29" d="M 34.617188 24.039062 C 34.570312 24.039062 34.523438 24.03125 34.476562 24.019531 C 31.410156 23.085938 27.261719 23.078125 27.21875 23.078125 L 25.117188 23.0625 C 24.851562 23.058594 24.636719 22.839844 24.640625 22.574219 C 24.640625 22.3125 24.855469 22.097656 25.121094 22.097656 C 25.121094 22.097656 25.121094 22.097656 25.125 22.097656 L 27.222656 22.117188 C 27.394531 22.117188 31.554688 22.125 34.753906 23.097656 C 35.007812 23.175781 35.152344 23.441406 35.074219 23.695312 C 35.011719 23.90625 34.820312 24.039062 34.617188 24.039062 Z M 34.617188 24.039062 " fill-opacity="1" fill-rule="nonzero"/><path fill="#472b29" d="M 23.195312 23.046875 C 23.195312 23.046875 23.195312 23.046875 23.191406 23.046875 L 19.226562 23.015625 C 18.960938 23.015625 18.75 22.796875 18.75 22.53125 C 18.75 22.269531 18.96875 22.054688 19.230469 22.054688 C 19.230469 22.054688 19.234375 22.054688 19.234375 22.054688 L 23.199219 22.085938 C 23.464844 22.085938 23.679688 22.304688 23.679688 22.570312 C 23.675781 22.832031 23.460938 23.046875 23.195312 23.046875 Z M 23.195312 23.046875 " fill-opacity="1" fill-rule="nonzero"/><path fill="#472b29" d="M 34.617188 27.882812 C 34.570312 27.882812 34.523438 27.878906 34.476562 27.863281 C 33.632812 27.609375 32.632812 27.398438 31.496094 27.242188 C 31.234375 27.203125 31.050781 26.960938 31.085938 26.699219 C 31.125 26.4375 31.367188 26.253906 31.628906 26.289062 C 32.8125 26.453125 33.867188 26.675781 34.753906 26.945312 C 35.007812 27.023438 35.152344 27.289062 35.074219 27.546875 C 35.011719 27.75 34.820312 27.882812 34.617188 27.882812 Z M 34.617188 27.882812 " fill-opacity="1" fill-rule="nonzero"/><path fill="#472b29" d="M 29.328125 27.011719 C 29.316406 27.011719 29.308594 27.011719 29.296875 27.011719 C 28.085938 26.925781 27.230469 26.921875 27.21875 26.921875 L 19.226562 26.863281 C 18.960938 26.859375 18.75 26.644531 18.75 26.378906 C 18.75 26.113281 18.96875 25.902344 19.230469 25.902344 C 19.230469 25.902344 19.234375 25.902344 19.234375 25.902344 L 27.222656 25.960938 C 27.234375 25.953125 28.109375 25.960938 29.363281 26.050781 C 29.628906 26.070312 29.828125 26.300781 29.808594 26.566406 C 29.789062 26.820312 29.578125 27.011719 29.328125 27.011719 Z M 29.328125 27.011719 " fill-opacity="1" fill-rule="nonzero"/><path fill="#472b29" d="M 34.617188 31.730469 C 34.570312 31.730469 34.523438 31.722656 34.476562 31.710938 C 31.410156 30.78125 27.261719 30.769531 27.21875 30.769531 C 26.953125 30.769531 26.738281 30.554688 26.738281 30.289062 C 26.738281 30.023438 26.953125 29.808594 27.21875 29.808594 C 27.394531 29.808594 31.554688 29.820312 34.753906 30.789062 C 35.007812 30.867188 35.152344 31.132812 35.074219 31.390625 C 35.011719 31.597656 34.820312 31.730469 34.617188 31.730469 Z M 34.617188 31.730469 " fill-opacity="1" fill-rule="nonzero"/><path fill="#472b29" d="M 25.480469 30.753906 C 25.480469 30.753906 25.480469 30.753906 25.476562 30.753906 L 19.226562 30.707031 C 18.960938 30.707031 18.75 30.488281 18.75 30.222656 C 18.75 29.960938 18.96875 29.746094 19.230469 29.746094 C 19.230469 29.746094 19.234375 29.746094 19.234375 29.746094 L 25.484375 29.792969 C 25.75 29.796875 25.964844 30.011719 25.960938 30.277344 C 25.960938 30.542969 25.746094 30.753906 25.480469 30.753906 Z M 25.480469 30.753906 " fill-opacity="1" fill-rule="nonzero"/><path fill="#472b29" d="M 34.617188 35.578125 C 34.570312 35.578125 34.523438 35.570312 34.476562 35.558594 C 32.757812 35.035156 30.710938 34.804688 29.296875 34.703125 C 29.03125 34.683594 28.832031 34.453125 28.851562 34.1875 C 28.871094 33.925781 29.101562 33.726562 29.363281 33.746094 C 30.828125 33.851562 32.953125 34.089844 34.753906 34.636719 C 35.007812 34.714844 35.152344 34.980469 35.074219 35.238281 C 35.011719 35.441406 34.820312 35.578125 34.617188 35.578125 Z M 34.617188 35.578125 " fill-opacity="1" fill-rule="nonzero"/><path fill="#472b29" d="M 27.21875 34.617188 C 27.21875 34.617188 27.21875 34.617188 27.214844 34.617188 L 19.226562 34.554688 C 18.960938 34.554688 18.75 34.335938 18.75 34.070312 C 18.75 33.808594 18.96875 33.59375 19.230469 33.59375 C 19.230469 33.59375 19.234375 33.59375 19.234375 33.59375 L 27.222656 33.652344 C 27.488281 33.65625 27.703125 33.875 27.699219 34.136719 C 27.699219 34.402344 27.484375 34.617188 27.21875 34.617188 Z M 27.21875 34.617188 " fill-opacity="1" fill-rule="nonzero"/><path fill="#472b29" d="M 34.617188 39.421875 C 34.570312 39.421875 34.523438 39.417969 34.476562 39.402344 C 33.859375 39.21875 33.152344 39.054688 32.371094 38.914062 C 32.109375 38.871094 31.9375 38.621094 31.980469 38.359375 C 32.027344 38.097656 32.277344 37.921875 32.539062 37.96875 C 33.359375 38.113281 34.101562 38.285156 34.753906 38.484375 C 35.007812 38.558594 35.152344 38.828125 35.074219 39.082031 C 35.011719 39.289062 34.820312 39.421875 34.617188 39.421875 Z M 34.617188 39.421875 " fill-opacity="1" fill-rule="nonzero"/><path fill="#472b29" d="M 30.898438 38.699219 C 30.878906 38.699219 30.859375 38.695312 30.839844 38.695312 C 28.875 38.464844 27.238281 38.460938 27.21875 38.460938 L 24.574219 38.441406 C 24.308594 38.4375 24.097656 38.222656 24.097656 37.957031 C 24.101562 37.691406 24.316406 37.480469 24.578125 37.480469 C 24.578125 37.480469 24.582031 37.480469 24.582031 37.480469 L 27.222656 37.5 C 27.289062 37.5 28.929688 37.503906 30.953125 37.738281 C 31.214844 37.769531 31.40625 38.007812 31.375 38.273438 C 31.347656 38.519531 31.136719 38.699219 30.898438 38.699219 Z M 30.898438 38.699219 " fill-opacity="1" fill-rule="nonzero"/><path fill="#472b29" d="M 22.65625 38.425781 C 22.65625 38.425781 22.65625 38.425781 22.652344 38.425781 L 19.226562 38.402344 C 18.960938 38.398438 18.75 38.183594 18.75 37.917969 C 18.75 37.652344 18.96875 37.441406 19.230469 37.441406 C 19.230469 37.441406 19.234375 37.441406 19.234375 37.441406 L 22.660156 37.464844 C 22.925781 37.46875 23.140625 37.683594 23.136719 37.949219 C 23.136719 38.214844 22.921875 38.425781 22.65625 38.425781 Z M 22.65625 38.425781 " fill-opacity="1" fill-rule="nonzero"/><path fill="#472b29" d="M 34.617188 43.269531 C 34.570312 43.269531 34.523438 43.261719 34.476562 43.25 C 32.761719 42.730469 30.714844 42.5 29.300781 42.394531 C 29.035156 42.375 28.835938 42.144531 28.855469 41.882812 C 28.871094 41.617188 29.109375 41.425781 29.367188 41.4375 C 30.832031 41.542969 32.953125 41.78125 34.753906 42.328125 C 35.007812 42.40625 35.152344 42.675781 35.074219 42.929688 C 35.011719 43.136719 34.820312 43.269531 34.617188 43.269531 Z M 34.617188 43.269531 " fill-opacity="1" fill-rule="nonzero"/><path fill="#472b29" d="M 27.21875 42.308594 C 27.21875 42.308594 27.21875 42.308594 27.214844 42.308594 L 19.226562 42.246094 C 18.960938 42.246094 18.75 42.027344 18.75 41.761719 C 18.75 41.5 18.96875 41.285156 19.230469 41.285156 C 19.230469 41.285156 19.234375 41.285156 19.234375 41.285156 L 27.222656 41.347656 C 27.488281 41.347656 27.703125 41.566406 27.699219 41.832031 C 27.699219 42.09375 27.484375 42.308594 27.21875 42.308594 Z M 27.21875 42.308594 " fill-opacity="1" fill-rule="nonzero"/><path fill="#472b29" d="M 39.421875 24.039062 C 39.214844 24.039062 39.027344 23.90625 38.960938 23.699219 C 38.886719 23.441406 39.027344 23.175781 39.28125 23.097656 C 42.484375 22.125 46.644531 22.117188 46.816406 22.117188 L 48.914062 22.097656 C 48.914062 22.097656 48.917969 22.097656 48.917969 22.097656 C 49.179688 22.097656 49.394531 22.3125 49.398438 22.574219 C 49.398438 22.839844 49.1875 23.058594 48.921875 23.0625 L 46.820312 23.078125 C 46.777344 23.078125 42.625 23.089844 39.5625 24.019531 C 39.515625 24.03125 39.46875 24.039062 39.421875 24.039062 Z M 39.421875 24.039062 " fill-opacity="1" fill-rule="nonzero"/><path fill="#472b29" d="M 50.839844 23.046875 C 50.578125 23.046875 50.363281 22.832031 50.359375 22.570312 C 50.359375 22.304688 50.570312 22.085938 50.835938 22.085938 L 54.804688 22.054688 C 55.054688 22.050781 55.285156 22.269531 55.289062 22.53125 C 55.289062 22.796875 55.078125 23.015625 54.8125 23.015625 L 50.84375 23.046875 C 50.84375 23.046875 50.839844 23.046875 50.839844 23.046875 Z M 50.839844 23.046875 " fill-opacity="1" fill-rule="nonzero"/><path fill="#472b29" d="M 39.421875 27.882812 C 39.214844 27.882812 39.027344 27.75 38.960938 27.542969 C 38.886719 27.289062 39.027344 27.019531 39.28125 26.945312 C 40.171875 26.675781 41.222656 26.453125 42.40625 26.289062 C 42.660156 26.257812 42.910156 26.433594 42.949219 26.699219 C 42.984375 26.960938 42.804688 27.203125 42.539062 27.242188 C 41.40625 27.398438 40.402344 27.609375 39.5625 27.863281 C 39.515625 27.878906 39.46875 27.882812 39.421875 27.882812 Z M 39.421875 27.882812 " fill-opacity="1" fill-rule="nonzero"/><path fill="#472b29" d="M 44.707031 27.011719 C 44.457031 27.011719 44.25 26.820312 44.230469 26.566406 C 44.210938 26.300781 44.410156 26.070312 44.675781 26.050781 C 45.921875 25.960938 46.78125 25.960938 46.816406 25.960938 L 54.804688 25.902344 C 54.804688 25.902344 54.808594 25.902344 54.808594 25.902344 C 55.070312 25.902344 55.285156 26.113281 55.289062 26.378906 C 55.289062 26.644531 55.078125 26.859375 54.8125 26.863281 L 46.820312 26.921875 C 46.808594 26.921875 45.953125 26.925781 44.746094 27.011719 C 44.730469 27.011719 44.722656 27.011719 44.707031 27.011719 Z M 44.707031 27.011719 " fill-opacity="1" fill-rule="nonzero"/><path fill="#472b29" d="M 39.421875 31.730469 C 39.214844 31.730469 39.027344 31.597656 38.960938 31.390625 C 38.886719 31.136719 39.027344 30.867188 39.28125 30.789062 C 42.484375 29.820312 46.644531 29.808594 46.816406 29.808594 C 47.082031 29.808594 47.300781 30.023438 47.300781 30.289062 C 47.300781 30.554688 47.082031 30.769531 46.816406 30.769531 C 46.777344 30.769531 42.625 30.78125 39.5625 31.710938 C 39.515625 31.722656 39.46875 31.730469 39.421875 31.730469 Z M 39.421875 31.730469 " fill-opacity="1" fill-rule="nonzero"/><path fill="#472b29" d="M 48.558594 30.753906 C 48.292969 30.753906 48.078125 30.542969 48.074219 30.277344 C 48.074219 30.011719 48.289062 29.796875 48.554688 29.792969 L 54.804688 29.746094 C 55.054688 29.726562 55.285156 29.960938 55.289062 30.222656 C 55.289062 30.488281 55.078125 30.707031 54.8125 30.707031 L 48.5625 30.753906 C 48.558594 30.753906 48.558594 30.753906 48.558594 30.753906 Z M 48.558594 30.753906 " fill-opacity="1" fill-rule="nonzero"/><path fill="#472b29" d="M 39.421875 35.578125 C 39.214844 35.578125 39.027344 35.441406 38.960938 35.238281 C 38.886719 34.980469 39.027344 34.714844 39.28125 34.636719 C 41.085938 34.089844 43.210938 33.851562 44.675781 33.746094 C 44.9375 33.722656 45.167969 33.925781 45.1875 34.1875 C 45.207031 34.453125 45.007812 34.683594 44.742188 34.703125 C 43.324219 34.804688 41.277344 35.035156 39.5625 35.558594 C 39.515625 35.570312 39.46875 35.578125 39.421875 35.578125 Z M 39.421875 35.578125 " fill-opacity="1" fill-rule="nonzero"/><path fill="#472b29" d="M 39.421875 39.421875 C 39.214844 39.421875 39.027344 39.289062 38.960938 39.082031 C 38.886719 38.828125 39.027344 38.558594 39.285156 38.484375 C 39.9375 38.285156 40.679688 38.113281 41.5 37.96875 C 41.75 37.910156 42.007812 38.097656 42.054688 38.359375 C 42.101562 38.621094 41.925781 38.871094 41.664062 38.914062 C 40.882812 39.054688 40.175781 39.214844 39.5625 39.402344 C 39.515625 39.417969 39.46875 39.421875 39.421875 39.421875 Z M 39.421875 39.421875 " fill-opacity="1" fill-rule="nonzero"/><path fill="#472b29" d="M 39.421875 43.269531 C 39.214844 43.269531 39.027344 43.136719 38.960938 42.929688 C 38.886719 42.675781 39.027344 42.40625 39.28125 42.328125 C 41.082031 41.78125 43.207031 41.542969 44.671875 41.4375 C 44.929688 41.417969 45.164062 41.617188 45.183594 41.882812 C 45.203125 42.144531 45.003906 42.375 44.738281 42.394531 C 43.324219 42.496094 41.277344 42.730469 39.5625 43.25 C 39.515625 43.261719 39.46875 43.269531 39.421875 43.269531 Z M 39.421875 43.269531 " fill-opacity="1" fill-rule="nonzero"/><path fill="#472b29" d="M 62.019531 52.644531 C 61.886719 52.644531 61.777344 52.535156 61.777344 52.402344 L 61.777344 50.480469 C 61.777344 50.347656 61.886719 50.242188 62.019531 50.242188 C 62.152344 50.242188 62.257812 50.347656 62.257812 50.480469 L 62.257812 52.402344 C 62.257812 52.535156 62.152344 52.644531 62.019531 52.644531 Z M 62.019531 52.644531 " fill-opacity="1" fill-rule="nonzero"/><path fill="#472b29" d="M 59.839844 56.988281 C 59.757812 56.988281 59.679688 56.945312 59.632812 56.867188 C 59.566406 56.753906 59.605469 56.605469 59.71875 56.539062 C 60.617188 56.015625 61.277344 55.09375 61.585938 53.945312 C 61.617188 53.816406 61.753906 53.746094 61.878906 53.773438 C 62.007812 53.808594 62.082031 53.9375 62.050781 54.066406 C 61.710938 55.339844 60.96875 56.367188 59.960938 56.953125 C 59.925781 56.976562 59.882812 56.988281 59.839844 56.988281 Z M 59.839844 56.988281 " fill-opacity="1" fill-rule="nonzero"/><path fill="#472b29" d="M 58.171875 57.453125 L 54.328125 57.453125 C 54.195312 57.453125 54.085938 57.34375 54.085938 57.210938 C 54.085938 57.078125 54.195312 56.972656 54.328125 56.972656 L 58.171875 56.972656 C 58.304688 56.972656 58.414062 57.078125 58.414062 57.210938 C 58.414062 57.34375 58.304688 57.453125 58.171875 57.453125 Z M 58.171875 57.453125 " fill-opacity="1" fill-rule="nonzero"/><g clip-path="url(#196caf80bd)"><path fill="#9e968c" d="M 31.199219 33.097656 C 31.195312 33.140625 31.179688 33.191406 31.148438 33.242188 C 31.089844 33.34375 30.972656 33.441406 30.84375 33.507812 C 30.71875 33.574219 30.582031 33.605469 30.484375 33.597656 C 30.433594 33.589844 30.394531 33.574219 30.363281 33.550781 C 30.351562 33.542969 30.339844 33.527344 30.328125 33.511719 L 30.308594 33.472656 L 30.21875 33.320312 C 30.09375 33.117188 29.945312 32.933594 29.785156 32.75 C 29.707031 32.660156 29.625 32.570312 29.546875 32.480469 C 29.472656 32.386719 29.398438 32.292969 29.328125 32.199219 C 29.183594 32.007812 29.039062 31.820312 28.90625 31.621094 C 28.648438 31.222656 27.839844 29.960938 27.667969 29.746094 L 27.542969 29.582031 L 27.523438 29.554688 C 26.863281 29.886719 26.074219 30.058594 25.1875 30.089844 C 23.207031 30.160156 21.308594 27.976562 21.335938 25.734375 C 21.371094 23.140625 23.25 21.875 25.664062 21.675781 C 28.058594 21.570312 29.640625 24.371094 29.574219 26.089844 C 29.523438 27.390625 29.074219 28.359375 28.332031 29.015625 C 28.398438 29.101562 28.464844 29.183594 28.535156 29.269531 C 28.625 29.375 28.71875 29.480469 28.804688 29.585938 C 28.890625 29.695312 28.972656 29.804688 29.054688 29.914062 C 29.222656 30.136719 29.390625 30.355469 29.542969 30.585938 C 29.691406 30.816406 29.839844 31.046875 29.972656 31.289062 C 30.109375 31.527344 30.695312 32.371094 30.84375 32.554688 C 30.917969 32.648438 30.992188 32.742188 31.0625 32.839844 C 31.097656 32.886719 31.132812 32.9375 31.164062 32.984375 C 31.171875 32.996094 31.183594 33.015625 31.191406 33.03125 C 31.195312 33.050781 31.199219 33.074219 31.199219 33.097656 Z M 31.199219 33.097656 " fill-opacity="1" fill-rule="nonzero"/></g><g clip-path="url(#2f4c0b1b5b)"><path fill="#8eddbe" d="M 31.730469 33.125 C 31.738281 33.136719 31.746094 33.148438 31.75 33.160156 C 31.773438 33.210938 31.789062 33.269531 31.796875 33.324219 C 31.800781 33.351562 31.800781 33.378906 31.800781 33.410156 C 31.796875 33.4375 31.796875 33.464844 31.789062 33.492188 C 31.78125 33.546875 31.761719 33.605469 31.734375 33.652344 C 31.707031 33.703125 31.675781 33.75 31.636719 33.789062 C 31.625 33.800781 31.613281 33.808594 31.605469 33.820312 L 31.574219 33.84375 L 31.515625 33.890625 L 31.398438 33.976562 C 31.320312 34.035156 31.242188 34.09375 31.160156 34.152344 L 31.101562 34.191406 L 31.054688 34.226562 L 31.039062 34.234375 C 30.992188 34.265625 30.941406 34.289062 30.890625 34.300781 C 30.863281 34.308594 30.839844 34.3125 30.8125 34.316406 C 30.785156 34.316406 30.757812 34.316406 30.730469 34.316406 C 30.679688 34.3125 30.628906 34.300781 30.578125 34.277344 C 30.53125 34.257812 30.488281 34.226562 30.449219 34.195312 C 30.410156 34.160156 30.378906 34.117188 30.355469 34.074219 C 30.253906 33.953125 30.15625 33.832031 30.058594 33.707031 C 30.011719 33.644531 29.964844 33.582031 29.917969 33.519531 C 29.867188 33.457031 29.820312 33.394531 29.773438 33.332031 L 29.636719 33.144531 L 29.496094 32.953125 C 29.40625 32.824219 29.316406 32.695312 29.230469 32.566406 C 29.054688 32.300781 28.890625 32.03125 28.714844 31.773438 C 28.535156 31.515625 28.347656 31.261719 28.15625 31.011719 L 28.085938 30.921875 L 28.050781 30.875 C 28.039062 30.859375 28.027344 30.839844 28.015625 30.820312 C 27.96875 30.746094 27.941406 30.660156 27.933594 30.574219 C 27.929688 30.484375 27.945312 30.394531 27.980469 30.3125 C 28.015625 30.230469 28.070312 30.15625 28.140625 30.101562 C 28.261719 30.003906 28.382812 29.910156 28.507812 29.8125 L 28.597656 29.742188 L 28.644531 29.707031 L 28.667969 29.6875 L 28.695312 29.667969 C 28.710938 29.65625 28.734375 29.648438 28.753906 29.636719 C 28.761719 29.628906 28.773438 29.625 28.78125 29.621094 C 28.792969 29.617188 28.804688 29.613281 28.8125 29.609375 L 28.84375 29.601562 L 28.859375 29.59375 L 28.878906 29.59375 L 28.910156 29.585938 C 28.921875 29.585938 28.933594 29.585938 28.941406 29.582031 C 29.117188 29.566406 29.300781 29.652344 29.40625 29.796875 C 29.417969 29.816406 29.429688 29.832031 29.441406 29.847656 L 29.472656 29.894531 L 29.539062 29.992188 L 29.667969 30.191406 C 29.839844 30.453125 30.433594 31.289062 30.554688 31.445312 C 30.613281 31.523438 30.671875 31.605469 30.730469 31.683594 C 30.789062 31.765625 30.847656 31.84375 30.898438 31.929688 C 31.007812 32.097656 31.105469 32.269531 31.214844 32.4375 C 31.324219 32.601562 31.445312 32.757812 31.570312 32.910156 L 31.664062 33.027344 L 31.6875 33.054688 L 31.710938 33.089844 C 31.71875 33.101562 31.722656 33.113281 31.730469 33.125 Z M 31.730469 33.125 " fill-opacity="1" fill-rule="nonzero"/></g><path fill="#c6e0f9" d="M 28.671875 25.777344 C 28.671875 27.15625 27.839844 28.3125 26.660156 28.738281 C 26.449219 28.8125 26.226562 28.867188 25.996094 28.890625 C 25.886719 28.902344 25.777344 28.910156 25.664062 28.910156 C 23.53125 28.738281 22.570312 27.722656 22.375 25.488281 C 22.242188 23.996094 24.121094 22.316406 25.574219 22.367188 C 25.78125 22.375 25.984375 22.40625 26.179688 22.457031 C 26.496094 22.542969 26.796875 22.679688 27.074219 22.859375 C 28.007812 23.46875 28.671875 24.570312 28.671875 25.777344 Z M 28.671875 25.777344 " fill-opacity="1" fill-rule="nonzero"/><path fill="#ffffff" d="M 26.78125 27.089844 C 26.710938 27.757812 26.675781 28.316406 26.660156 28.738281 C 26.449219 28.8125 26.226562 28.867188 25.996094 28.890625 C 26.136719 27.847656 26.472656 27.058594 26.542969 26.238281 C 26.601562 25.554688 26.335938 23.539062 26.179688 22.457031 C 26.496094 22.542969 26.796875 22.679688 27.074219 22.859375 C 27.015625 23.960938 26.898438 26 26.78125 27.089844 Z M 23.71875 23.929688 C 23.296875 24.554688 22.984375 25.554688 23.367188 25.976562 C 23.628906 26.261719 23.882812 25.519531 24.25 24.925781 C 24.71875 24.164062 25.984375 23.453125 25.355469 23.074219 C 25.054688 22.890625 24.140625 23.304688 23.71875 23.929688 Z M 24.050781 26.925781 C 23.984375 26.65625 23.730469 26.449219 23.539062 26.507812 C 23.296875 26.589844 23.164062 26.789062 23.234375 27.105469 C 23.28125 27.3125 23.519531 27.605469 23.75 27.527344 C 23.980469 27.4375 24.125 27.234375 24.050781 26.925781 Z M 24.050781 26.925781 " fill-opacity="1" fill-rule="nonzero"/></svg>